{"title":"Bob Marley &amp; The Wailers - Exodus - Custom Remaster by MC Lu","uid":7705396,"size":836637150,"categoryP":"audio","categoryS":"flac","magnet":"?xt=urn:btih:47b42bcbf4b30a181de75969e415d35a9751f0b5&amp;dn=Bob+Marley+%26amp%3B+The+Wailers+-+Exodus+-+Custom+Remaster+by+MC+Lu&amp;tr=udp%3A%2F%2Ftracker.openbittorrent.com%3A80&amp;tr=udp%3A%2F%2Fopen.demonii.com%3A1337&amp;tr=udp%3A%2F%2Ftracker.coppersurfer.tk%3A6969&amp;tr=udp%3A%2F%2Fexodus.desync.com%3A6969","seeders":1,"leechers":0,"uploader":"beavis39","files":-1,"time":1349672416,"description":"Bob Marley &amp; The Wailers - Exodus - Custom Remaster by MC Lurken (a.k.a. Beavis39)\n\n\n\n1 - Natural Mystic\n2 - So Much Things to Say\n3 - Guiltiness\n4 - The Heathen\n5 - Exodus\n6 - Jamming\n7 - Waiting in Vain\n8 - Turn Your Lights Down Low\n9 - Three Little Birds\n10 - One Love, People Get Ready\n\n\n\nSetup:\n-HP G72-250US\n-Intel Core i3 M350 2.27GHz\n-8Gb PC3-10700 RAM\n-Win7 64-bit SP1\n-SB X-Fi Surround 5.1\n\n\nProcess:\n-Original 16-bit/44.1kHz files joined in Wavelab 6\n-Remove DC offset and save as 64-bit float/44.1kHz\n-Resample to 384kHz in Wavelab w/crystal resampler ultra(slow) relax background priority\n-Create new 64-bit/384kHz master recording in Wavelab\n\n\nAs reported in Wavelab:\n-Original 16-bit/44.1kHz: Apparent Bit Resolution = 16, Peak = 0db\n-With DC Offset Removed: Apparent Bit Resolution = 19, Peak = 0.001db\n-64-bit/384kHz Recording: Apparent Bit Resolution = 39, Peak = 0.365db\n\n\n-Resample new 64-bit/384kHz master recording to 64-bit/96kHz in Wavelab w/crystal resampler ultra(slow) relax background priority\n-Apply MBIT+ 24-bit Dither in Wavelab w/Izotope Ozone 5 VST Plugin\n-Flac encode level 0 with Trader's Little Helper\n-Tag and pic with xrecode II\n\n\nfoobar2000 1.1.14a / Dynamic Range Meter 1.1.1\nlog date: 2012-10-07 19:32:30\n\n--------------------------------------------------------------------------------\nAnalyzed: ? / ?\n--------------------------------------------------------------------------------\n\nDR         Peak         RMS     Duration Track\n--------------------------------------------------------------------------------\nDR12       0.00 dB   -15.06 dB      3:28 ?-01 - Natural Mystic\nDR13       0.00 dB   -15.14 dB      3:08 ?-02 - So Much Things to Say\nDR13      -0.51 dB   -15.94 dB      3:19 ?-03 - Guiltiness\nDR12      -1.28 dB   -15.71 dB      2:32 ?-04 - The Heathen\nDR13      -0.34 dB   -14.53 dB      7:39 ?-05 - Exodus\nDR12       0.00 dB   -13.48 dB      3:31 ?-06 - Jamming\nDR13      -1.22 dB   -15.97 dB      4:15 ?-07 - Waiting in Vain\nDR12      -1.17 dB   -16.05 dB      3:39 ?-08 - Turn Your Lights Down Low\nDR14      -0.07 dB   -15.69 dB      3:00 ?-09 - Three Little Birds\nDR14       0.00 dB   -14.98 dB      2:53 ?-10 - One Love, People Get Ready\n--------------------------------------------------------------------------------\n\nNumber of tracks:  10\nOfficial DR value: DR13\n\nSamplerate:        96000 Hz\nChannels:          2\nBits per sample:   24\nBitrate:           4608 kbps\nCodec:             PCM\n\n\n\nenjoy :)","torrent":{"xt":"urn:btih:47b42bcbf4b30a181de75969e415d35a9751f0b5","amp;dn":"Bob+Marley+%26amp%3B+The+Wailers+-+Exodus+-+Custom+Remaster+by+MC+Lu","amp;tr":["udp%3A%2F%2Ftracker.openbittorrent.com%3A80","udp%3A%2F%2Fopen.demonii.com%3A1337","udp%3A%2F%2Ftracker.coppersurfer.tk%3A6969","udp%3A%2F%2Fexodus.desync.com%3A6969"],"infoHash":"47b42bcbf4b30a181de75969e415d35a9751f0b5","infoHashBuffer":{"type":"Buffer","data":[71,180,43,203,244,179,10,24,29,231,89,105,228,21,211,90,151,81,240,181]},"announce":[],"urlList":[]}}